inDegrees=yes
name=ik_S46_A13_T01
DataType=double
version=3
OpenSimVersion=4.3-2021-08-27-4bc7ad9
endheader
time	pelvis_tilt	pelvis_list	pelvis_rotation	pelvis_tx	pelvis_ty	pelvis_tz	hip_flexion_r	hip_adduction_r	hip_rotation_r	knee_angle_r	knee_angle_r_beta	ankle_angle_r	subtalar_angle_r	mtp_angle_r	hip_flexion_l	hip_adduction_l	hip_rotation_l	knee_angle_l	knee_angle_l_beta	ankle_angle_l	subtalar_angle_l	mtp_angle_l	lumbar_extension	lumbar_bending	lumbar_rotation	arm_flex_r	arm_add_r	arm_rot_r	elbow_flex_r	pro_sup_r	wrist_flex_r	wrist_dev_r	arm_flex_l	arm_add_l	arm_rot_l	elbow_flex_l	pro_sup_l	wrist_flex_l	wrist_dev_l
5.419999999999972	-0.4848528002866155	-0.4824569916134768	20.40585359262069	0	0.9399999999999999	0	25.19467130942851	-8.612081021928198	-7.559703260839172	29.54328138769749	0.5156275320584806	0	0	0	25.19467130942851	-8.612081021928198	-7.559703260839172	29.54328138769749	0.5156275320584806	0	0	0	0.5886904144427049	0.8009397013182293	14.22219599034191	40.89733095456953	-53.63759808211074	20.86393194726429	106.8370711363374	87.59170851151744	0	0	97.76546759369917	1.143254272625072	14.36275666658801	-0.1707167982674404	86.59063920399851	0	0
5.439999999999972	-0.4542146204193029	-0.5009692319555618	20.66807149912558	0	0.9399999999999999	0	25.21189243326791	-8.616002131018965	-7.564134693739779	29.55956970389404	0.5159118168057163	0	0	0	25.21189243326791	-8.616002131018965	-7.564134693739779	29.55956970389404	0.5159118168057163	0	0	0	0.6063494872259497	0.7716365612931063	13.88528759209006	43.43709751812183	-53.08804192004024	22.25974449079702	106.9799776442442	83.53561391633409	0	0	97.65366669153715	1.256603174443478	14.42303376451587	0.5694206260188656	86.84339854946018	0	0
5.459999999999972	-0.4320754107296375	-0.5233284585827783	20.97806761429215	0	0.9399999999999999	0	25.23148394937921	-8.620459216443349	-7.569175087300814	29.57808496821698	0.5162349691300286	0	0	0	25.23148394937921	-8.620459216443349	-7.569175087300814	29.57808496821698	0.5162349691300286	0	0	0	0.6132508999967811	0.7407927369324084	13.454902465568	46.46357812532435	-52.35650052982218	23.84881760488452	106.6517352804977	79.50364533311402	0	0	97.23156691239667	1.176992788572805	14.29396800080601	0.9145985087324326	87.04269189601388	0	0
5.479999999999971	-0.3941714027342821	-0.5510705070953347	21.12132933276377	0	0.9399999999999999	0	25.25025935740806	-8.624717054015148	-7.573997538821709	29.59585171698434	0.5165450573933937	0	0	0	25.25025935740806	-8.624717054015148	-7.573997538821709	29.59585171698434	0.5165450573933937	0	0	0	0.6338662323968635	0.7027182320457381	13.262857452763	49.44907518818044	-51.60303258642119	25.32487367312764	105.5294327003635	77.10770858228967	0	0	96.56432721160554	1.601920302510259	14.40202834898977	2.692644908462914	87.76636978580048	0	0
5.499999999999971	-0.3800237813461203	-0.5620347392667432	21.03334766415374	0	0.9399999999999999	0	25.26432970700294	-8.627888847512605	-7.57759920531957	29.6092176653029	0.516778337199204	0	0	0	25.26432970700294	-8.627888847512605	-7.57759920531957	29.6092176653029	0.516778337199204	0	0	0	0.6454568147449729	0.6886499805138561	13.33497520158316	49.4051635276942	-51.54152279222584	24.92955742904114	106.6603399707957	73.67573012229958	0	0	95.98155191523622	1.919423649091794	14.59143683564524	3.771504362601592	87.82231380328918	0	0
5.51999999999997	-0.2825143629463584	-0.6191612727138227	21.31216709928503	0	0.9399999999999999	0	25.28121963408854	-8.631705112593254	-7.581930093320868	29.62520665519442	0.5170573977168791	0	0	0	25.28121963408854	-8.631705112593254	-7.581930093320868	29.62520665519442	0.5170573977168791	0	0	0	0.7092658160413856	0.601374654364052	12.99033241961159	52.3763854112841	-50.52168411982856	26.11446584722073	105.7397977884741	69.45464830647035	0	0	95.31199217112436	2.227001406498244	14.94040875968826	4.879863332066708	87.87027350613863	0	0
5.53999999999997	-0.2465796471147471	-0.6517399468044413	22.12064169068661	0	0.9399999999999999	0	25.30065973428022	-8.636101732926985	-7.586919562329158	29.64356302123299	0.5173777767429534	0	0	0	25.30065973428022	-8.636101732926985	-7.586919562329158	29.64356302123299	0.5173777767429534	0	0	0	0.7223749469678652	0.5646022917001294	12.18155418583491	61.48935944883072	-47.16608893035944	30.34453650955246	100.1928070276749	63.91085312807706	0	0	94.73027770574487	2.618150776805646	15.09020454632248	5.929043053845166	88.00086169471788	0	0
5.559999999999969	-0.2074520375804878	-0.6872863654415399	22.05763663065403	0	0.9399999999999999	0	25.31346122105886	-8.638964189472139	-7.590182911143612	29.65575866554337	0.5175906308905717	0	0	0	25.31346122105886	-8.638964189472139	-7.590182911143612	29.65575866554337	0.5175906308905717	0	0	0	0.7482908806777887	0.5196072806820705	12.30675280434705	61.33198009951095	-47.17145307646951	29.92280925481742	100.7909310378053	60.21354795258952	0	0	94.18817931781112	3.105154415857735	15.25963325703419	6.858372135257256	88.17054182136646	0	0
5.579999999999969	-0.1768205313885641	-0.7092994165421806	22.47788142194524	0	0.9399999999999999	0	25.32838419509001	-8.642305614331462	-7.593991289532464	29.66994041027102	0.5178381490297465	0	0	0	25.32838419509001	-8.642305614331462	-7.593991289532464	29.66994041027102	0.5178381490297465	0	0	0	0.7603457056444707	0.4835466966751525	11.93748475440317	63.95117926408584	-45.83249150021474	30.76333674394166	99.34992619131383	53.20388778689117	0	0	93.21146774746569	4.139741907201261	15.64032340353335	8.483684634084371	88.38541616532665	0	0
5.599999999999969	-0.1356159061601154	-0.7438433389492065	22.85178262063784	0	0.9399999999999999	0	25.34498008268726	-8.646034127179201	-7.598236703966729	29.68564205689135	0.5181121944612559	0	0	0	25.34498008268726	-8.646034127179201	-7.598236703966729	29.68564205689135	0.5181121944612559	0	0	0	0.7781924906904436	0.4356855620040143	11.65280713110471	66.28855466983703	-44.37407895826351	31.89820052180277	97.13289508965411	51.77263476066437	0	0	92.71775298196114	4.716702214626228	15.93801024512929	9.262416485113645	88.43732055979505	0	0
5.619999999999968	-0.09793987174569643	-0.7739880017815899	23.23994484921826	0	0.9399999999999999	0	25.36299904571054	-8.650082680049149	-7.602847867136622	29.7026623745825	0.5184092550447019	0	0	0	25.36299904571054	-8.650082680049149	-7.602847867136622	29.7026623745825	0.5184092550447019	0	0	0	0.795655872361248	0.3916346706364033	11.35952159619837	68.45510557971821	-42.83740648759262	32.96279008567655	94.81462845321842	49.17722506521922	0	0	92.59822810317564	4.98880601461757	16.0553092632647	9.9102349235975	88.32784109322782	0	0
5.639999999999968	-0.04665987547952017	-0.8069116747176475	23.66242382768904	0	0.9399999999999999	0	25.37609708585055	-8.653014886469226	-7.60619312678464	29.71505759986449	0.5186255925373991	0	0	0	25.37609708585055	-8.653014886469226	-7.60619312678464	29.71505759986449	0.5186255925373991	0	0	0	0.8262095337990883	0.3397992527954944	11.07027371511242	70.41606452536487	-41.37021593272269	34.14818837484717	92.34279788155396	46.92512156233406	0	0	92.23379261626556	5.405785042208518	16.21986354641279	10.05209209953376	88.32960616620306	0	0
